<svg width="128" height="128" viewBox="0 0 128 128" fill="none" xmlns="http://www.w3.org/2000/svg">
  <path
    d="M27.988 100H1.66901L0 96.3839C0 96.3839 22.9809 70.555 57.6449 52.9913C92.3089 35.4276 128 26 128 26C128 26 93.8495 41.3682 71.8957 58.4154C49.9418 75.4625 27.988 100 27.988 100Z"
    fill="white" />
  <path
    d="M32.9677 33H3.41935L2 35.4663L34.129 60C41.6449 54.825 45.9865 52.471 54 49.0962L32.9677 33Z"
    fill="white" />
  <path
    d="M74.0324 64C67.0347 67.7814 63.7975 71.0857 59 78.6859L88.2873 100H117.704L119 96.8809L74.0324 64Z"
    fill="white" />
</svg>